<?xml version="1.0" standalone="no"?><!DOCTYPE svg PUBLIC "-//W3C//DTD SVG 1.1//EN" "http://www.w3.org/Graphics/SVG/1.1/DTD/svg11.dtd"><svg t="1744795703031" class="icon" viewBox="0 0 1024 1024" version="1.1" xmlns="http://www.w3.org/2000/svg" p-id="13941" xmlns:xlink="http://www.w3.org/1999/xlink" width="200" height="200"><path d="M164.368 16l437.12 437.056 112.8-112.8C560.16 246.72 353.744 121.28 260.896 64.864L198.688 27.2A77.216 77.216 0 0 0 164.368 16z m-66.72 52.32c-0.88 4.8-1.648 9.632-1.648 14.816V946.88c0 3.632 0.736 7.008 1.232 10.448L541.936 512.64 97.648 68.32z m690.784 316.928l-127.36 127.36 125.136 125.152c66.304-40.192 112.24-68.096 117.328-71.168 22.544-13.776 35.264-34.56 34.88-57.28-0.32-22.272-13.056-42.192-34.72-54.448-4.832-2.784-50.144-30.144-115.264-69.6zM601.504 572.192L165.68 1008c8.48-1.472 16.928-4 25.024-8.88a3764144 3764144 0 0 1 521.376-316.352l-110.576-110.576z" fill="#000000" p-id="13942"></path></svg>