<?xml version="1.0" standalone="no"?><!DOCTYPE svg PUBLIC "-//W3C//DTD SVG 1.1//EN" "http://www.w3.org/Graphics/SVG/1.1/DTD/svg11.dtd"><svg t="1730543758148" class="icon" viewBox="0 0 1024 1024" version="1.1" xmlns="http://www.w3.org/2000/svg" p-id="137455" xmlns:xlink="http://www.w3.org/1999/xlink" width="200" height="200"><path d="M916.48 97.28H107.52c-45.056 0-81.92 36.864-81.92 81.92v517.12c0 45.056 36.864 81.92 81.92 81.92h808.96c45.056 0 81.92-36.864 81.92-81.92V179.2c0-45.056-36.864-81.92-81.92-81.92z m40.96 599.04c0 22.528-18.432 40.96-40.96 40.96H107.52c-22.528 0-40.96-18.432-40.96-40.96V179.2c0-22.528 18.432-40.96 40.96-40.96h808.96c22.528 0 40.96 18.432 40.96 40.96v517.12zM788.48 839.68H240.64c-11.264 0-20.48 9.216-20.48 20.48s9.216 20.48 20.48 20.48h547.84c11.264 0 20.48-9.216 20.48-20.48s-9.216-20.48-20.48-20.48z" fill="#1296db" p-id="137456"></path><path d="M615.424 437.76c0-29.696 13.312-52.224 40.96-68.608-15.36-22.016-38.4-33.792-69.12-36.352-29.184-2.048-60.416 16.896-72.192 16.896-12.288 0-40.448-15.872-62.464-15.872-45.568 0.512-93.696 35.84-93.696 108.032 0 21.504 4.096 43.008 11.776 66.048 10.24 29.696 48.128 102.912 87.552 101.376 20.48-0.512 35.328-14.336 61.952-14.336 26.112 0 39.424 14.336 62.464 14.336 39.936-0.512 73.728-67.072 83.968-96.768-54.272-25.088-51.2-73.216-51.2-74.752z m-10.752 112.128c-6.144 8.192-11.776 14.848-17.408 18.944-4.608 3.072-7.68 4.608-9.728 4.608-3.584 0-7.168-1.024-14.336-3.584-0.512 0-1.024-0.512-1.536-0.512-0.512 0-1.536-0.512-2.048-0.512-7.168-2.56-11.776-4.096-16.896-5.632-7.68-2.048-15.36-3.072-23.552-3.072-8.192 0-16.384 1.024-24.064 3.072-5.632 1.536-10.752 3.072-17.92 5.632-0.512 0-3.584 1.024-4.096 1.536-1.536 0.512-2.56 1.024-3.584 1.536-4.096 1.536-7.168 2.048-9.728 2.048h-0.512c-0.512 0-1.024 0-1.536-0.512-2.048-0.512-4.096-2.048-6.656-4.096-5.632-4.608-12.288-11.776-18.944-20.48C420.352 532.48 409.6 510.976 404.48 496.64c-6.144-18.432-9.728-36.352-9.728-52.736 0-24.576 7.168-43.52 19.968-56.32 10.752-10.752 25.6-16.896 40.448-17.408 2.56 0 6.144 0.512 10.752 2.048 3.584 1.024 7.68 2.048 12.8 4.096 1.536 0.512 7.168 2.56 7.68 2.56 3.072 1.024 5.632 2.048 8.192 2.56 7.68 2.56 13.312 3.584 19.968 3.584 6.656 0 11.776-1.536 19.968-4.096 3.072-1.024 13.824-5.12 15.36-5.632 10.752-3.584 18.432-5.632 25.088-6.144h5.632c9.216 0.512 17.408 2.56 24.064 5.632-15.36 17.92-23.552 39.936-23.552 65.024 0 6.144 0.512 13.312 2.048 21.504 2.56 12.8 7.68 25.088 15.872 36.864 6.144 8.704 13.824 16.896 22.528 24.064-4.608 9.216-10.752 18.944-16.896 27.648z" fill="#1296db" p-id="137457"></path><path d="M565.248 304.64c20.992-26.112 18.944-50.176 18.432-58.88-18.432 1.024-39.424 13.312-51.712 28.16-13.312 15.872-20.992 35.84-19.456 58.368 19.456 2.048 37.888-8.704 52.736-27.648z" fill="#1296db" p-id="137458"></path></svg>